<svg version="1.2" xmlns="http://www.w3.org/2000/svg" viewBox="0 0 302 302" width="302" height="302">
	<title>image</title>
	<style>
		.s0 { fill: #e99a3a } 
		.s1 { fill: #247b83 } 
	</style>
	<g id="svgg">
		<path id="path0" fill-rule="evenodd" class="s0" d="m233.2 160.6c0.2 0.3-4.9 0.4-14.9 0.4h-15.2l-1.5 1.4c-0.8 0.9-1.4 1.9-1.4 2.4 0 0.6-0.2 1-0.4 1-0.5 0-0.6 29.1 0 29.3 0.2 0 0.4 0.7 0.5 1.4 0 0.7 0.2 1.2 0.3 1.1 0.2-0.1 0.4 0.1 0.5 0.4 0.2 0.3 0.6 0.6 0.9 0.6 0.3 0 0.6 0.2 0.6 0.4 0 0.3 9.2 0.4 26.8 0.4h26.8l-0.1-19.5c-0.1-16.9-0.2-19.5-0.7-19.6-0.5-0.1-0.5-0.1 0 0.3 0.4 0.2 0.4 0.4 0.1 0.4-0.2 0-0.6-0.2-0.7-0.4-0.1-0.2-0.6-0.4-1-0.4-0.5 0-0.8 0.2-0.8 0.4 0 0.2-0.5 0.4-1.2 0.4-0.7 0-1.2-0.2-1.2-0.4 0-0.2-0.9-0.4-2-0.4-1.3 0-2 0.2-1.8 0.4 0.1 0.2-0.1 0.4-0.6 0.4-0.5 0-0.7-0.2-0.6-0.4 0.2-0.2-0.7-0.4-2.2-0.4-1.5 0-2.4 0.2-2.2 0.4 0.2 0.2-0.5 0.4-1.8 0.4-1.3 0-2-0.2-1.8-0.4 0.1-0.2-0.3-0.4-1-0.4-0.7 0-1.1 0.2-1 0.4 0.1 0.2-0.1 0.4-0.6 0.4-0.5 0-0.7-0.2-0.6-0.4 0.1-0.2-0.1-0.4-0.6-0.4-0.5 0-0.7 0.2-0.6 0.4z"/>
		<path id="path1" fill-rule="evenodd" class="s1" d="m67.4 55c0 0.2-0.7 0.4-1.5 0.4-0.9 0-1.8 0.2-2.1 0.5-0.4 0.4-0.5 0.4-0.2 0 0.1-0.3 0.1-0.5-0.2-0.5-0.2 0-0.4 0.3-0.4 0.6 0 0.6-0.3 0.6-1.4 0.4-1-0.2-1.4-0.1-1.5 0.4-0.2 0.3-0.1 0.6 0.2 0.6 0.3 0 0.3 0.1 0 0.5-0.4 0.4-0.6 0.4-0.9-0.1q-0.4-0.6-0.4-0.1c0 0.3-0.4 0.4-1.3 0.2-0.8-0.1-1.1-0.1-1 0.2 0.4 0.6-2.9 3.1-3.9 3-0.8-0.2-0.8-0.2 0 0.5 0.5 0.4 0.6 0.6 0.2 0.5-0.7-0.2-2.5 2.4-2.2 3 0.2 0.2 0.1 0.3-0.2 0.2-0.8-0.2-1.5 0.5-1.8 1.9-0.2 0.6-0.6 1.2-0.9 1.3-0.4 0.2-0.5 0.6-0.3 1.6 0.1 0.8 0.1 1.3-0.2 1.3-0.2 0-0.4 0.3-0.4 0.8 0 1.1-0.4 2-0.8 1.8-0.8-0.5-0.4 3.9 0.3 4.5 0.7 0.5 0.7 0.5 0 1-0.8 0.6-1.1 16.5-0.4 16.8 0.7 0.2 0.9 4.7 0.3 5-0.7 0.2-0.8 1.2-0.2 1.4 0.3 0.1 0.5 2.2 0.5 6.2 0 6.3-0.2 7.3-1.9 7.3-0.3 0-0.6 0.2-0.6 0.4 0 0.2-0.6 0.4-1.4 0.4-0.8 0-1.4-0.2-1.4-0.4 0-0.6-27.1-0.5-27.3 0.1-0.2 0.4-0.4 0.4-1 0-1.1-0.6-1.3-0.6-1.3 0.1 0 0.4-0.4 0.6-0.9 0.6-1 0-2.5 0.9-2.6 1.6-0.1 0.9-0.1 1-0.5 0.4-0.3-0.5-0.4-0.5-0.4 0.1-0.1 0.4-0.1 0.8-0.2 1 0 0.2-0.2 0.9-0.4 1.6-0.2 0.7-0.4 1.2-0.5 1.1-0.7-0.4-0.4 6 0.2 6.4 0.4 0.3 0.6 0.7 0.4 0.8-0.5 0.6 2.3 2.6 3.5 2.6 0.4 0 0.6 0.2 0.6 0.4 0 0.2 0.9 0.4 2 0.4 1.1 0 2-0.2 2-0.4 0-0.2 0.4-0.4 0.9-0.5 0.5-0.1 0.1-0.2-0.9-0.3l-1.8-0.1 1.6-0.3c2.2-0.5 3.9-0.5 2.8 0-0.6 0.3-0.5 0.4 0.8 0.4 0.9 0 2 0.1 2.4 0.1 0.4 0.1 0.6 0.1 0.3 0-1.2-0.4-0.3-0.9 1.6-0.9 1.8 0.1 1.9 0.1 0.9 0.4-1 0.3-0.8 0.3 1 0.3 1.6 0.1 2 0 1.6-0.3-0.5-0.3-0.4-0.4 0.3-0.4 0.5 0 0.8 0.2 0.7 0.4-0.2 0.2 0.6 0.4 1.9 0.4 1.4 0 2.3-0.2 2.4-0.5 0.2-0.4 0.3-0.4 0.7 0 0.3 0.3 1.1 0.5 1.9 0.5 0.7 0 1.5 0.3 1.9 0.6 0.5 0.6 0.7 0.6 1.5-0.3 0.7-0.8 1.1-0.9 1.5-0.7 0.5 0.3 0.5 0.4-0.1 0.4q-0.7 0-0.4 0.6c0.3 0.9 4.2 0.8 4.9-0.1 0.5-0.5 0.5-0.6-0.7-0.3-0.7 0.1-1.6 0.1-2-0.2-0.6-0.3-0.3-0.4 1.1-0.4 1.3 0 2.1 0.3 2.9 0.9 0.6 0.5 1.4 1.1 1.8 1.4 0.6 0.4 0.6 0.5 0 0.5-0.9 0-1.1 4.6-0.2 4.9 0.8 0.3 0.9 9.3 0.1 9.8-0.3 0.2-0.6 0.7-0.7 1.1-0.2 1-20.6 1.4-21 0.4-0.3-0.8-1.7-0.8-1.7 0 0 0.3-0.3 0.6-0.7 0.6-0.4 0-1.1 0.3-1.5 0.8-0.4 0.4-1 0.6-1.5 0.5-0.7-0.2-0.8-0.1-0.6 0.7 0.2 0.5 0 0.9-0.3 1.1-0.8 0.3-0.9 5.7-0.1 5.7q0.5 0-0.1 0.4c-0.5 0.3-0.5 0.4 0.1 0.4 0.4 0 0.7 0.3 0.7 0.6 0 0.3 0.4 0.8 0.8 1 0.4 0.2 0.8 0.8 0.8 1.2q0 0.8 0.8 0.8c0.4 0 0.8 0.2 0.8 0.4 0 0.2 0.5 0.4 1 0.4 0.5 0 1 0.2 1 0.4 0 0.2 2.1 0.4 5.7 0.4 3.5-0.1 5.2-0.2 4.5-0.4q-1.2-0.3-0.4-0.4c7.9-0.5 9-0.5 9 0.1 0 0.5 0.4 0.7 1.4 0.7 1.1 0 1.4 0.2 1.4 0.8 0 0.4 0.2 0.8 0.5 1 0.4 0.2 0.4 0.2 0 0.4-0.7 0.3-0.7 8.6-0.1 8.5 0.3-0.1 0.6 0.1 0.7 0.4 0.1 0.3-0.1 0.5-0.5 0.5-0.5 0-0.6 0.5-0.6 2.4 0 1.3 0.2 2.4 0.4 2.4 0.7 0 0.8 2.6 0.1 3.1-0.6 0.5-0.6 0.5 0.1 1 0.7 0.5 0.5 1.8-0.2 1.3-0.1-0.1-0.3 0.5-0.3 1.2-0.1 0.8 0.1 1.4 0.3 1.4 0.2 0 0.4 0.3 0.4 0.6 0 0.3-0.2 0.6-0.4 0.6-0.2 0-0.4 0.9-0.4 2 0 1.5 0.1 2 0.6 2 0.8 0 0.8 0.8 0 1.1-0.7 0.2-0.9 37.9-0.2 38.3 0.2 0.1 0.5 0.9 0.6 1.8 0.1 0.9 0.4 1.6 0.5 1.6 0.5 0 1.3 2.4 0.9 2.6-0.2 0.1-0.4 0-0.4-0.4 0-0.3-0.2-0.6-0.4-0.6-0.5 0 0 1.3 0.7 1.7 0.2 0.2 0.6 0.9 0.7 1.7 0.2 0.7 0.5 1.4 0.8 1.6 0.3 0.1 0.6 0.4 0.6 0.8 0 0.3 0.4 0.8 0.8 1.1 0.5 0.3 0.9 1 0.9 1.4 0 0.5 0.4 0.9 0.8 1 0.4 0.2 0.9 0.6 1 1.1 0.1 0.4 0.3 0.7 0.5 0.6 0.1-0.1 0.7 0.3 1.1 0.8 0.5 0.6 1.2 1 1.5 1 0.3 0 0.6 0.3 0.6 0.6 0 0.3 0.6 0.6 1.6 0.8 1 0.2 1.6 0.5 1.6 0.8 0 0.4 0.4 0.6 1 0.6 0.6 0 1 0.2 1 0.4 0 0.3 4.4 0.4 14.6 0.3 12-0.1 14.6-0.1 14.6 0.4 0 0.7 0.7 0.6 0.9-0.1 0.4-0.8 120.3-0.7 120.6 0.1 0.3 0.8 4.4 0.7 4.7-0.2 0.2-0.6 1-0.6 8.5-0.3 4.6 0.1 8.6 0.2 8.9 0.2 0.3 0 1.2-0.1 1.9-0.1 0.7 0 1.1-0.2 0.9-0.3q-0.5-0.3 0.4-0.8c0.5-0.3 1-0.4 1.1-0.2 0.1 0.1 0 0.2-0.2 0.2-0.3 0-0.5 0.3-0.5 0.7 0 0.5 0.2 0.4 1-0.4 0.5-0.6 1.2-1.1 1.6-1.1 0.3 0 0.6-0.2 0.6-0.4 0-0.2 0.3-0.4 0.6-0.6q0.6-0.2 0.4 0.3c-0.1 0.3 0 0.2 0.3-0.2 0.3-0.4 0.8-0.7 1.1-0.7 1.3 0 5.9-4.3 7-6.6 0.3-0.8 0.8-1.4 1-1.4 0.2 0 0.5-0.7 0.6-1.6 0.2-1 0.5-1.6 0.9-1.6 0.3 0 0.5-0.4 0.5-1 0-0.5 0.2-1.1 0.4-1.2 0.1-0.1 0.2-1 0.1-2-0.2-1.5-0.1-2 0.4-2.3 0.6-0.3 0.6-0.5 0.2-1.1-0.4-0.7-0.4-0.9 0.1-1.2 0.4-0.3 0.5-0.5 0.1-0.7-0.7-0.5-0.9-14.8-0.1-15.3 0.5-0.4 0.5-0.4 0-0.8-0.4-0.2-0.6-1-0.5-2.7 0.1-2.4-0.7-3.2-1.7-1.8-0.6 0.7-5.2 0.6-5.1-0.2 0.1-0.7-1.9-0.6-2.5 0.1-0.3 0.5-1.5 0.5-7.3 0.3-3.8-0.2-7.2-0.2-7.6 0-0.6 0.2-0.5 0.2 0.2 0.3 0.9 0 0.9 0 0.3 1.2-0.3 0.6-0.6 2-0.6 3 0 1.7-0.5 2.7-1 1.7-0.1-0.3-0.1-0.1 0 0.4 0.2 0.6 0 1.2-0.4 1.6-0.4 0.4-0.5 0.7-0.3 0.8 0.5 0.2 0.2 1.3-0.3 1.3-0.2 0-0.4-0.3-0.5-0.7-0.2-0.5-0.2-0.5-0.3 0.2 0 0.5-0.3 1-0.8 1.1-0.4 0.1-0.8 0.5-0.8 0.8 0 0.7-1.9 2.6-2.6 2.6-0.3 0-0.6 0.2-0.6 0.5 0 0.3-0.4 0.9-0.9 1.3-0.4 0.5-0.7 0.6-0.5 0.3 0.1-0.3 0.1-0.5-0.2-0.5-0.2 0-0.4 0.3-0.4 0.6 0 0.3-0.6 0.6-1.8 0.8-1 0.2-1.8 0.5-2 0.9-0.1 0.3-0.5 0.5-1 0.3-0.6-0.2-0.8-0.1-0.8 0.5 0 0.9-129.1 1-129.6 0-0.2-0.2-0.9-0.4-1.6-0.4-1 0-1.2-0.1-1-0.6 0.1-0.4 0-0.5-0.5-0.3-0.5 0.1-0.9-0.1-1.2-0.7-0.2-0.5-0.5-0.7-0.5-0.4 0 0.6-0.8 0.7-0.8 0.1 0-0.1-1.2-1.5-2.6-3-1.4-1.4-2.6-2.9-2.6-3.2 0-0.3-0.5-0.8-1-1.1-0.8-0.3-1-0.7-0.8-1.4q0.2-0.9-0.3-0.8c-0.3 0.1-0.5-0.4-0.4-1.4 0-1.3-0.1-1.5-0.8-1.5-0.6 0-0.7-0.2-0.5-0.7 0.2-0.4 0.3-1.5 0.4-2.5q0.1-1.9-0.1-0.3c-0.1 0.8-0.3 1.4-0.5 1.3-0.5-0.3-0.5-50.6-0.1-52.6 0.2-0.8 0.4 9 0.5 21.6l0.2 23 0.1-23.7c0.1-20.8 0-23.7-0.5-23.7-0.3 0-0.6-0.2-0.6-0.4 0-0.2 0.3-0.4 0.6-0.4 0.7 0 0.7-61.9 0.1-63.3-0.3-0.6-0.2-0.7 0.5-0.7 0.5 0 0.8-0.3 0.8-0.8 0-0.5-0.2-0.7-0.4-0.6q-0.4 0.2 0-0.7c0.2-0.5 0.5-0.9 0.7-0.8 0.3 0 0.4-0.2 0.3-0.5-0.2-0.3 0.2-0.7 0.9-0.9 0.7-0.3 0.8-0.4 0.4-0.5-0.4 0-0.7-0.2-0.7-0.4 0-0.3 0.3-0.4 0.6-0.3 0.3 0.2 0.6 0.1 0.6-0.1 0-0.7 3.3-3.8 3.9-3.7 0.3 0.1 0.7-0.3 1-0.9q0.5-1.1 1.2-0.9c0.4 0.1 0.9 0 1.1-0.3 0.2-0.3 0.8-0.4 1.2-0.3q0.8 0.2 0.8-0.5c0-0.4 0.3-0.6 0.9-0.6 0.5 0 1.1-0.1 1.3-0.3 0.5-0.6 22.6-0.4 22.6 0.2 0 0.3 0.2 0.5 0.4 0.5 0.2 0 0.4-0.2 0.4-0.4 0-0.3 3.5-0.4 9.9-0.4 5.9 0 9.6 0.2 9.1 0.4-0.7 0.3-0.6 0.3 0.5 0.4 0.8 0 1.2-0.2 1.1-0.4-0.2-0.3 13.1-0.4 39.3-0.4 31.3 0 39.7 0.1 39.8 0.5 0.2 0.4 0.3 0.4 0.6-0.1 0.3-0.3 1.2-0.6 2.6-0.6 2.3-0.1 3.2 0.2 2.1 0.7-0.5 0.1-0.1 0.2 0.9 0 1.4-0.2 1.7-0.1 1.7 0.4q0 0.7 1 0.7c0.6 0 1 0.2 1 0.4 0 0.2 0.3 0.3 0.6 0.1 0.3-0.1 0.7 0.1 0.8 0.5 0.3 0.6 1.1 0.9 0.9 0.3-0.1-0.2 0.1-0.3 0.3-0.4 0.2-0.1 0.4 0 0.4 0.2 0 0.5 1.6 2.6 2.7 3.7 0.6 0.6 1.1 1.4 1.1 1.8 0.1 0.8 0.1 0.8 0.4 0 0.3-0.7 0.3-0.7 0.4-0.1 0 0.4 0.3 0.8 0.6 1 0.4 0.1 0.6 0.4 0.4 0.7-0.1 0.3 0 0.5 0.4 0.4 0.3-0.2 0.5 0.2 0.5 1.1 0 0.7 0.2 1.3 0.4 1.4 0.2 0.1 0.3 1.3 0.3 2.8-0.1 2.5-0.1 2.6 0.2 0.7 0.2-1.6 0.3-1.7 0.4-0.8 0 0.7 0.2 1.7 0.2 2.2 0.1 0.6 0.2 3 0.2 5.4-0.1 2.4-0.1 5 0 5.8 0 0.8-0.3 1.6-0.6 1.9-0.6 0.4-0.5 0.4 0 0.6 0.6 0.3 0.6 1.3 0.6 7.2 0 3.8 0.1 7.3 0.1 7.7 0.1 4.5-0.3 9.8-0.8 9.8-0.7 0-0.7 0.7 0.1 0.9 0.8 0.4 0.8 1-0.1 1.2-0.6 0.2-0.6 0.2 0 0.3 0.7 0 0.7 0.3 0.6 3.7l-0.1 3.8 4.2 0.1c4.8 0.2 20.9 0 21.2-0.3 0.1-0.1-0.1-0.3-0.4-0.5-0.8-0.5-0.8-69.1 0-69.6 0.4-0.3 0.5-0.4 0.1-0.4-0.3 0-0.5-0.5-0.5-1 0-0.6 0.2-1 0.5-1 0.3 0 0.2-0.2-0.2-0.4-0.4-0.3-0.7-0.9-0.7-1.4 0-0.6-0.2-1-0.4-1-0.2 0-0.3-0.5-0.1-1.2 0.1-0.9 0-1.4-0.4-1.7-0.3-0.3-0.7-1-0.9-1.6q-0.2-1.1-1.2-1.3-1-0.3-0.8-0.9c0.1-0.3-0.1-0.6-0.4-0.7-0.3-0.2-0.6-0.8-0.7-1.4q-0.3-1.2-1-1.2c-0.4 0-1.1-0.4-1.5-0.8-0.4-0.4-0.9-0.8-1.1-0.8-0.2 0-0.7-0.4-1.2-1-0.4-0.5-1-0.9-1.3-0.7-0.3 0.1-1-0.3-1.5-0.9-0.6-0.5-1.2-1-1.5-1-0.5 0-0.5 0.1-0.1 0.3 0.5 0.3 0.4 0.4-0.1 0.6-0.3 0.2-0.6 0.1-0.6-0.1 0-0.2-0.4-0.4-0.8-0.4-0.5 0-1.3-0.3-1.8-0.6-0.6-0.4-1.6-0.6-2.9-0.5-1.2 0-1.9-0.1-2-0.4-0.2-0.6-1.2-0.7-1.4-0.1-0.2 0.7-162.8 0.7-163 0-0.2-0.5-0.9-0.5-0.9 0zm167.4 2.8c0.1 0.2-0.1 0.4-0.5 0.4-0.5 0-0.9 0.2-1 0.5-0.1 0.3-0.3 0.4-0.5 0.2-0.3-0.3 0.6-1.5 1.3-1.5 0.2 0 0.6 0.2 0.7 0.4zm13 7.2c0 0.5-1.1 0.8-1.8 0.5-1.3-0.4-0.3-1.4 1.1-1 0.4 0.1 0.7 0.3 0.7 0.5zm6 12.8c0 0.2-0.1 0.4-0.2 0.4-0.1 0-0.4 0.1-0.8 0.2-0.4 0.2-0.5 0.1-0.4-0.4 0.3-0.7 1.4-0.9 1.4-0.2zm-29.8 1.9c0.2 0.4-1.8 1.4-2.1 1.1-0.2-0.2 1.1-1.4 1.6-1.4 0.1 0 0.3 0.2 0.5 0.3zm2.2 0.3c0 0.2-0.3 0.5-0.6 0.9-0.8 0.8-1.3 0.4-0.5-0.5 0.5-0.6 1.1-0.8 1.1-0.4zm-85.7 0.5c-5 0.1-13.2 0.1-18.2 0-5-0.1-0.9-0.1 9.1-0.1 10 0 14.1 0 9.1 0.1zm46.8 0c-4.5 0.1-12.1 0.1-16.8 0-4.7-0.1-0.9-0.1 8.3-0.1 9.2 0 13.1 0 8.5 0.1zm-96.3 14c0 0.5-0.3 0.6-1.6 0.4-0.9-0.1-1.6-0.1-1.6 0.1 0 0.2-0.4 0.4-0.9 0.5-0.7 0.1-0.9 0.3-0.8 1 0.1 0.6-0.1 0.9-0.4 0.9-0.4 0-0.5 1.2-0.5 5.9 0 4.5-0.1 5.9-0.5 5.8-0.3-0.1-0.5 0.4-0.5 1.3 0 0.8 0.2 1.4 0.5 1.3 0.2-0.1 0.5 0.1 0.6 0.4 0.1 0.3-0.2 0.5-0.6 0.5-0.7 0-0.7 0 0 0.4 1 0.6 1.1 99.6 0.1 99.6-0.3 0-0.6 0.2-0.6 0.4 0 0.7 1 1.5 1.6 1.3 0.5-0.1 0.5-0.1 0.1 0.2-0.7 0.5-0.2 1.8 0.5 1.5 0.3-0.1 0.7 0 0.8 0.2 0.1 0.2-0.1 0.4-0.5 0.4-1.4 0.1 1.2 0.9 3.3 1 1.1 0.1 2 0.3 2.1 0.6 0.2 0.5 25 0.6 25.5 0.1 0.4-0.4 9.8-0.5 9.6-0.1-0.1 0.2 0.1 0.4 0.6 0.4 0.5 0 0.7-0.2 0.6-0.4-0.1-0.2 12.1-0.3 29-0.3 16.1-0.1 29.4-0.2 29.7-0.3 0.2-0.2 0.5-0.1 0.7 0.2 0.2 0.4 0.5 0.4 1.2 0 0.6-0.3 1-0.3 1.4 0 0.2 0.2 0.6 0.3 0.7 0.2 0.3-0.3 14.2-0.4 14.5-0.2 0.1 0.2 1.4 0.1 2.8 0q4.2-0.5 4.2 0.4c0 0.2 0.3 0.4 0.6 0.4 0.3 0 0.6-0.2 0.6-0.6 0-0.3 0.4-0.6 1-0.7 0.5-0.1 0.9 0 0.8 0.2-0.2 0.1 0 0.3 0.2 0.3q0.4 0 0.2-1.6c-0.2-1.6 0.4-2.3 0.7-0.9q0.2 0.6 0.3-0.4c0-0.6-0.2-1.2-0.4-1.3-0.6-0.4-0.5-0.9 0.3-1.1 0.4-0.1-1.4-0.2-3.9-0.2-3 0-4.6-0.2-4.7-0.5-0.2-0.6-1.2-0.5-1.4 0.2-0.3 0.7-3.1 0.9-3.1 0.2 0-0.2-0.4-0.4-0.8-0.4-0.4 0-0.8-0.2-0.8-0.4 0-0.2-0.6-0.4-1.4-0.4-0.7 0-1.4-0.2-1.5-0.5-0.2-0.4-0.2-0.4-0.3 0 0 0.3-0.2 0.5-0.4 0.5-0.3 0-0.4-0.3-0.3-0.6q0.3-0.6-0.3-0.3c-0.6 0.2-0.9-0.5-0.3-0.8 0.2-0.1 0.1-0.1-0.2-0.1-0.7 0.2-2.5-0.7-2.5-1.3 0-0.3-0.4-0.7-0.9-1-0.8-0.4-0.9-0.4-0.3 0.3q0.6 0.8-0.7-0.2c-1.3-1-1.6-1.6-0.9-1.6 0.2 0 0.4 0.2 0.4 0.4 0 0.2 0.2 0.4 0.5 0.4 0.3 0-0.3-0.7-1.2-1.5-1-0.8-1.7-1.6-1.5-1.9 0.1-0.3 0-0.5-0.3-0.5-0.2 0.1-0.6-0.5-0.8-1.3-0.3-0.8-0.7-1.5-1-1.7-0.3-0.2-0.5-0.7-0.5-1.1 0-0.4-0.2-0.9-0.4-1-0.6-0.4-0.5-1.4 0.2-1.4 0.3 0 0.6-0.2 0.6-0.4 0-0.2-0.3-0.4-0.6-0.4-0.4 0-0.6-0.4-0.6-1.4 0-0.7-0.1-1.6-0.3-2-0.1-0.5 0.1-0.7 0.7-0.9 0.7-0.2 0.7-0.3 0.3-0.6-0.4-0.2-0.4-0.4 0.1-0.7 0.5-0.3 0.5-0.4-0.1-0.4-0.6 0-0.7-0.5-0.7-5.2 0-3.4-0.1-5.2-0.4-5-0.2 0.1-0.4-0.3-0.4-1 0-0.6 0.2-1.2 0.4-1.2 0.2 0 0.4-1.9 0.4-4.8 0-2.9-0.2-4.8-0.4-4.8-0.2 0-0.4-0.4-0.4-0.8 0-0.4 0.2-0.8 0.4-0.8 0.2 0 0.4-0.3 0.4-0.6 0-0.3 0.3-0.7 0.7-1 0.7-0.4 0.7-0.4 0-0.4-1.1 0-0.4-2.7 1-3.7 0.4-0.3 0.4-0.4 0-0.6-0.4-0.1-0.4-0.3 0.1-0.7 0.4-0.2 0.7-0.9 0.7-1.5 0-0.6 0.2-1.1 0.5-1 1 0.2 2.2-1 1.5-1.5-0.6-0.5-0.6-0.6 0.1-0.8 0.5-0.2 0.8-0.2 0.9 0.1 0.1 0.3 0.8-0.1 1.6-0.9 0.8-0.8 1.6-1.4 1.8-1.4 0.1 0 0.3-0.3 0.3-0.6 0-0.5 0.3-0.6 1-0.5 0.6 0.1 1 0 1-0.2 0-0.1 0.5-0.3 1-0.3q1 0 1-0.7c0-0.5 0.3-0.6 1.5-0.4 0.8 0.1 1.3 0.1 1 0-0.8-0.3-0.1-0.9 1.1-0.9q1.2 0 1.2 0.6c0 0.3 0.3 0.6 0.6 0.6 0.3 0 0.6-0.2 0.6-0.4 0-0.2 2.1-0.4 5.3-0.5l5.3-0.1-5.6-0.2-5.6-0.2 3.3-0.3c1.8-0.2 4.2-0.3 5.2-0.1 2.7 0.4 2.5 1.6 2.5-17.7 0-9.4 0.2-18.6 0.4-20.5 0.4-3.3-0.1-9-1-10.9-0.2-0.4 0-0.7 0.5-0.8 0.6-0.2 0.6-0.2 0-0.3-0.4 0-0.7-0.3-0.7-0.6 0-0.3-0.7-0.8-1.6-1.2-0.9-0.3-1.6-0.8-1.6-1 0-0.2-0.2-0.4-0.4-0.4-0.2 0-0.4 0.3-0.4 0.6 0 0.8-1.2 0.8-1.5 0-0.2-0.7-16.1-0.9-16.1-0.2 0 0.9-92 1.3-92.3 0.4-0.1-0.2-0.4-0.3-0.7-0.1-0.3 0.1-0.6 0-0.6-0.3 0-0.2-0.2-0.4-0.4-0.4-0.2 0-0.4 0.3-0.4 0.6 0 0.3 0.2 0.6 0.5 0.6 0.2 0 0.3 0.1 0.2 0.2-0.4 0.5-3.1-0.3-3.1-0.8 0-0.3-0.2-0.6-0.4-0.6-0.2 0-0.4 0.2-0.4 0.4 0 0.2-0.2 0.4-0.4 0.4-0.3 0-0.3-0.2-0.2-0.4 0.1-0.2 0-0.4-0.2-0.4-0.3 0-0.4 0.3-0.3 0.8 0.3 1.1-0.4 1-0.9-0.1-0.2-0.6-0.4-0.7-0.4-0.2 0 0.8-2.4 0.9-2.4 0 0-0.3-0.2-0.5-0.4-0.5-0.2 0-0.4 0.3-0.4 0.7zm120.2 2.5c0.1 0.2 0.6 0.4 0.9 0.4 0.4 0 1 0.4 1.4 0.8 0.8 0.9 0.9 2.4 0.3 2.4-0.2 0-0.4-0.1-0.4-0.3 0-0.8-2.3-2.9-3.2-2.9-0.4 0-0.7-0.2-0.6-0.4 0.1-0.2 0.5-0.4 0.8-0.4 0.3 0 0.7 0.2 0.8 0.4zm4.1 7.5c-0.1 0.6-0.2 0.1-0.2-1.1 0-1.2 0.1-1.7 0.2-1.1 0.1 0.6 0.1 1.6 0 2.2zm-57.1 8.9c-0.3 0.2-0.9 0.4-1.2 0.4-0.5 0-0.5-0.1 0-0.4 0.3-0.2 0.9-0.4 1.2-0.4 0.5 0 0.5 0.1 0 0.4zm-6.5 2.2c0.1 0.3 0.4 0.6 0.6 0.6 0.2 0 0.2-0.2 0.1-0.4-0.1-0.2 1.6-0.4 4.2-0.5 2.6 0 4.4 0.1 4.4 0.3 0 0.2 0.2 0.1 0.5-0.1 0.6-0.6 1.9-0.6 1.9-0.1 0 0.3 0.3 0.4 0.6 0.3q0.6-0.3 0.6 0.5c0 0.4 0.2 0.8 0.4 0.8 0.3 0 0.3-0.2 0.2-0.4-0.1-0.2 0.2-0.4 0.9-0.4 0.8 0 1 0.1 0.5 0.4-0.5 0.3-0.5 0.4 0.1 0.4 0.3 0 0.7 0.2 0.8 0.5 0.2 0.3 0.3 0.2 0.3-0.2 0-0.4 0.2-0.7 0.4-0.7 0.3 0 0.4 0.2 0.3 0.5-0.2 0.4 0 0.5 0.7 0.4 0.7-0.1 1 0 1 0.5 0 0.7 0.7 0.8 0.9 0.2 0.1-0.5 1.5-0.1 1.5 0.4 0 0.2-0.2 0.4-0.5 0.5-0.3 0.1-0.1 0.1 0.4 0q0.9-0.1 0.9 0.5c0 0.3 0.3 0.6 0.7 0.6 0.4 0.1 1 0.1 1.3 0.1 0.3 0.1 0.7 0.5 0.8 1 0.1 0.5 0.4 0.9 0.6 0.8 0.9-0.3 0.6 2-0.3 2.8-0.5 0.4-1.2 1.3-1.5 2-0.3 0.7-0.7 1.3-0.9 1.3-0.2 0-0.3 0.5-0.3 1.1 0 0.9-0.1 1-0.4 0.5-0.3-0.4-0.4-0.5-0.4-0.1 0 1.9-3.7 2.6-5.1 1-0.5-0.7-1-0.9-1.5-0.7-0.4 0.1-0.9 0-1-0.3-0.2-0.2-1-0.4-1.8-0.4-1.2 0.1-1.4-0.1-1.2-0.5 0.2-0.6-0.6-0.6-2.8 0.2-1.1 0.4-4.2 0.2-5.6-0.4-0.6-0.2-1.2-0.3-1.3-0.2-0.1 0.1 0 0.2 0.3 0.2 0.2 0 0.3 0.2 0.2 0.4-0.4 0.7-1.8 0.5-1.8-0.3-0.1-0.6-0.1-0.6-0.3-0.1-0.2 0.8-1.6 1.6-2.7 1.5-0.5-0.1-1.1 0.4-1.6 1.2-0.4 0.7-1 1.2-1.3 1.1-0.2-0.1-0.9 0.2-1.4 0.6-0.6 0.4-1.1 0.7-1.2 0.6-0.1-0.2-0.4 0.1-0.7 0.6-0.2 0.4-0.6 0.7-0.8 0.6-0.3-0.2-2.1 3-1.8 3.3 0.1 0.1 0.2 0 0.2-0.3 0-0.3 0.1-0.4 0.3-0.3 0.1 0.2-0.1 0.6-0.5 1-0.6 0.7-0.6 0.8 0 1 0.9 0.4 0.7 1.2-0.2 1-0.5-0.1-0.8-0.1-0.7 0 0.2 0.1 5.2 0.2 11.3 0.1 10.7 0 11 0 11 0.7 0 0.5 0.4 1 1.2 1.2 1.4 0.5 1.6 1.3 0.4 1.6-1 0.2-1 1.3 0 1.3 1 0 1.3 1.1 0.6 2.1-0.3 0.4-0.5 1-0.3 1.3 0.1 0.3-0.3 0.7-1 0.9-0.6 0.3-0.9 0.5-0.6 0.5 0.3 0 0.5 0.3 0.5 0.6 0 0.7-0.7 0.8-0.9 0.1-0.2-0.3-0.2-0.2-0.3 0.2 0 0.4-0.1 0.7-0.3 0.7-0.5 0.1-10.2 0.5-11.1 0.5-0.4 0-2.1-0.1-3.6-0.1-1.5-0.1-3.1 0-3.5 0.2-0.6 0.3-0.7 0.2-0.5-0.7 0.3-1.1 0.2-1.1-1.8-1.1-1.7 0-2 0.1-2 0.8 0 0.7-0.2 0.8-1.7 0.6-0.9-0.1-1.4-0.1-1 0 0.6 0.2 0.7 0.8 0.7 3.4 0 1.7 0.1 3.4 0.2 3.8 0.3 0.7-0.8 0.9-1.1 0.2q-0.2-0.4-0.2 0c0.1 0.4 3.2 0.5 11.2 0.4 11.9 0 13.4 0.2 13.5 2.3 0.1 0.6 0.1 0.5 0.4-0.1 0.4-1 0.4-1 0.5 2.9 0.1 3.5-1.1 5.9-2.5 5.1-0.3-0.2-0.6-0.1-0.8 0.2-0.6 0.9-14.8 1.1-14.8 0.2 0-0.3-0.3-0.6-0.6-0.6-0.4 0-0.5 0.2-0.4 0.5 0.3 0.4 0.2 0.4-0.2 0-0.7-0.6-4-0.7-4-0.1 0 0.2 0.2 0.4 0.4 0.4 0.2 0 0.4 0.3 0.4 0.6 0 0.3 0.3 0.6 0.6 0.7 0.3 0.2 0.5 0.5 0.4 0.9-0.2 0.3-0.1 0.6 0.1 0.6 0.3 0 0.5 0.4 0.6 0.9 0 0.5 0.5 1.1 1 1.3 0.5 0.2 1.1 0.8 1.4 1.4 0.3 0.5 0.7 1.1 1 1.3 0.3 0.2 0.5 0.7 0.5 1.2 0 0.6 0.2 0.7 0.8 0.6 0.5-0.2 0.9 0 1.1 0.3 0.1 0.3 0.7 0.7 1.3 0.8 0.6 0.1 1.2 0.5 1.3 0.8 0.3 0.6 2.3 1.1 2.3 0.5 0-0.2 0.4-0.1 0.8 0.2 0.4 0.3 0.8 0.8 0.8 1.1 0 0.5 0.1 0.5 0.4 0q0.4-0.6 0.4-0.1c0 0.3 0.4 0.5 0.9 0.5 0.7 0 0.8-0.1 0.3-0.4-0.8-0.5 0.8-0.8 3.2-0.6 2.8 0.2 2.8 0.3 0 0.6l-2.6 0.3h3.5c2.6 0.1 3.5 0 3.5-0.4q0-0.5 0.4 0.1c0.3 0.5 0.4 0.5 0.4-0.1 0-0.4 0.3-0.7 0.6-0.7 0.3 0 0.6-0.2 0.6-0.4 0-0.2 0.3-0.4 0.6-0.4 0.7 0 0.8 0.7 0.1 0.9-0.3 0.2-0.2 0.2 0.2 0.3 0.4 0 0.7-0.2 0.7-0.4 0-0.2 0.3-0.4 0.6-0.4 0.3 0 0.6-0.3 0.8-0.6 0.1-0.5 0.5-0.6 1.1-0.4 0.8 0.1 1.1 0 1.4-0.8 0.9-1.9 4.7-1 4.3 0.9-0.1 0.6 0.1 1.1 0.6 1.4 0.5 0.3 0.8 0.9 0.8 1.5 0 0.8 0.1 0.9 0.4 0.4 0.5-0.7 1.3 0.2 0.9 1.1-0.1 0.3 0 0.5 0.3 0.5 0.2 0 0.3 0.6 0.3 1.6-0.2 1.7-2.4 4.6-3.2 4.2-0.2-0.2-0.3-0.1-0.3 0.1q0.3 1.3-0.7 0.4c-0.7-0.7-0.8-0.6-1.2 0.3-0.3 0.7-0.7 0.9-1.4 0.7-0.7-0.1-0.8-0.1-0.3 0.3 0.3 0.2 0.4 0.4 0.2 0.4-0.2 0.1-0.6 0.1-0.8 0.2-0.2 0-0.7 0.1-1.1 0.1-0.8 0.1-1 1.3-0.2 1.3 0.4 0.1 0.4 0.1 0 0.3-0.3 0.1-0.8-0.1-1.1-0.5-0.8-0.8-1.4-0.8-1.1 0 0.3 0.9-1.8 0.8-2.3-0.1-0.3-0.7-0.4-0.7-0.4 0.1 0 0.6-0.2 0.7-1.6 0.5-0.9-0.1-1.5-0.1-1.4 0.1 0.4 0.6-0.4 0.5-0.9-0.1-0.4-0.4-0.5-0.3-0.5 0.2 0 0.4-0.1 0.7-0.2 0.7-0.1 0-0.4 0.1-0.8 0.2-0.4 0.2-0.6 0-0.6-0.6 0-0.9-0.1-0.9-3-0.7-2.6 0.3-3 0.2-3.4-0.4-0.4-0.7-0.4-0.7-0.4 0 0 0.4-0.3 0.7-0.6 0.7-0.9 0-1.1-0.7-0.3-1 0.4-0.1 0-0.1-0.8 0-1.5 0.2-3.3-0.7-2.9-1.5 0.2-0.2 0.1-0.3-0.2-0.3-0.2 0-0.4 0.3-0.4 0.6 0 0.3-0.2 0.6-0.4 0.6-0.3 0-0.4-0.3-0.2-0.6q0.2-0.7-0.4-0.5c-0.3 0.2-1-0.2-1.6-0.7-0.5-0.5-1.3-0.9-1.6-0.7-0.4 0.1-0.8-0.2-1.1-0.9-0.5-1.2-1.3-1.3-1-0.1 0.2 0.8 0.2 0.8-0.3 0.2-0.3-0.4-0.6-0.7-0.7-0.7-0.2 0-0.9-0.7-1.7-1.5-0.8-0.8-2.6-2.7-4-4.1-1.4-1.5-2.6-2.9-2.6-3.3 0-0.3-0.5-0.8-1.1-1-0.7-0.3-0.8-0.4-0.4-0.5 0.9 0 0.9-0.5-0.1-1.2-0.4-0.3-0.8-0.8-0.8-1.1 0-0.2-0.3-0.6-0.6-0.8-0.4-0.2-0.7-0.6-0.7-1-0.1-0.3-0.4-0.9-0.7-1.3-0.4-0.5-0.4-0.6-0.1-0.5 0.8 0.5 0.6-0.4-0.5-1.5-0.5-0.6-1-1.5-1.1-2.2-0.2-0.9-0.5-1.2-1.1-1.2-0.5 0-0.7 0.2-0.6 0.4 0.4 0.7-0.2 1.3-0.8 0.8-0.3-0.3-0.5-0.7-0.4-0.8 0.1-0.2-0.1-0.4-0.6-0.4-0.8 0-1.1 0.6-0.4 1 0.6 0.4 0.5 1-0.2 1-0.3 0-0.6-0.2-0.5-0.5 0.1-0.3-0.4-0.5-1.1-0.5-0.7 0-1.2-0.3-1.1-0.5 0.1-0.3-0.2-0.5-0.7-0.5-0.5 0-0.8 0.3-0.9 0.9-0.1 0.8-0.2 0.8-0.9-0.4-0.4-0.7-1.3-1.5-1.9-1.7-1.6-0.5-1.6-6.5 0-6.7 0.6-0.1 1.1-0.6 1.3-1.2 0.4-0.9 0.5-0.9 3.8-0.9 3.3 0.1 6.2-1.3 4.7-2.3-0.2-0.2-0.3-0.8-0.3-1.5 0-0.7-0.1-1.4-0.3-1.7-0.2-0.3-0.3-0.9-0.1-1.5 0.2-1 0.2-1-1.8-0.9-1.8 0.2-2.1 0.1-2.3-0.6-0.3-0.9-1.2-0.9-1.4 0.1-0.3 1.1-1.5 1-1.8 0-0.2-0.7-0.3-0.8-0.6-0.3q-0.4 0.6-0.2-0.4c0.2-0.6 0-0.9-0.7-1.1-1.2-0.3-1.6-6.6-0.4-6.6 0.4 0 0.7-0.5 0.9-1.2 0.2-1.3 0.2-1.3 2.2-1.1 1.4 0.2 1.8 0.1 1.7-0.2q-0.3-0.4 0.1-0.1c0.3 0.1 1.9 0.3 3.5 0.3 3.2 0.1 3.8-0.2 3.8-1.8 0-0.5 0.5-1.2 1-1.6 0.7-0.6 1-1.1 0.9-1.6q-0.3-0.8 0.7-1.6c0.5-0.4 1.1-1.2 1.2-1.9 0.1-0.7 0.5-1.2 0.8-1.2 0.3 0 0.6-0.3 0.6-0.6 0-1 9-9.8 10.4-10.1 0.6-0.1 1.2-0.4 1.2-0.7 0-0.3 0.6-0.7 1.2-0.8 0.7-0.2 1.6-0.6 2-1 0.8-0.8 1.8-1.1 1.4-0.4-0.1 0.2 0 0.4 0.4 0.4 0.4 0 0.5-0.2 0.4-0.4-0.1-0.2 0.3-0.4 1.2-0.4 1 0 1.4-0.2 1.4-0.6 0-0.3 0.3-0.6 0.6-0.6 0.3 0 0.6-0.2 0.6-0.4 0-0.6 1.6-0.5 1.9 0.2zm65.9 14.2c0 3.8 0 5.4 0.1 3.5 0.1-1.9 0.1-5.1 0-7-0.1-1.9-0.1-0.4-0.1 3.5zm12.2-2.4c0 0.2 0.3 0.4 0.6 0.4 0.3 0 0.6-0.2 0.6-0.4 0-0.2-0.3-0.4-0.6-0.4-0.3 0-0.6 0.2-0.6 0.4zm-215.6 3.2c0 0.2-0.4 0.4-0.8 0.4-0.4 0-0.8-0.2-0.8-0.4 0-0.2 0.4-0.4 0.8-0.4 0.4 0 0.8 0.2 0.8 0.4zm-3.2 1.6c0 0.2-0.4 0.4-0.8 0.4-0.4 0-0.8-0.2-0.8-0.4 0-0.2 0.4-0.4 0.8-0.4 0.4 0 0.8 0.2 0.8 0.4zm102 5.7c-0.3 0.3-0.4 0.3-0.4-0.2 0-0.7 0.5-1.3 0.7-0.7 0.1 0.3 0 0.7-0.3 0.9zm43.1 0.9c0 0.2-0.4 0.4-1 0.4-1.8-0.1-1.9-0.2-1.3-0.6 0.7-0.5 2.1-0.4 2.3 0.2zm60.1 3.1c0 0.9-0.1 1.5-0.3 1.3-0.4-0.4-0.4-3 0-3 0.1 0 0.3 0.7 0.3 1.7zm-8 3.5c0 0.4-1.7 0.9-2 0.6-0.1-0.1 0.2-0.5 0.6-0.8 0.8-0.5 1.4-0.5 1.4 0.2zm8 0.4v1l-0.8-0.9c-0.4-0.5-0.8-0.9-0.8-1 0-0.1 0.4-0.1 0.8-0.1 0.6 0 0.8 0.2 0.8 1zm1.9 0.6c-0.2 0.4-0.2 0.8-0.1 0.9 0.4 0.4 0.7-0.2 0.5-1-0.1-0.7-0.1-0.7-0.4 0.1zm18.2 1.7c2.4 0.1 6.2 0.1 8.6 0 2.4-0.1 0.4-0.1-4.3-0.1-4.7 0-6.7 0-4.3 0.1zm17.6 0c0.4 0.1 1 0.1 1.4 0 0.4-0.1 0.1-0.2-0.7-0.2-0.8 0-1.1 0.1-0.7 0.2zm-141.3 7.1c0 0.3 0 0.7 0 0.9 0 0.1-0.2 0.4-0.4 0.4q-0.5 0.2-0.2-0.6 0.2-0.8-0.4-1c-0.3-0.2-0.6-0.5-0.6-0.7 0-0.3 0.2-0.3 0.8 0 0.4 0.2 0.8 0.7 0.8 1zm22.1 0.4c0 1.1 0.1 1.5 0.2 0.9 0.1-0.6 0.1-1.5 0-2-0.1-0.5-0.2 0-0.2 1.1zm-50.3 26.4c0 15.4 0 21.6 0.1 13.9 0.1-7.8 0.1-20.4 0-28-0.1-7.7-0.1-1.3-0.1 14.1zm34.6-27.4c0 0.2-0.2 0.5-0.4 0.6-0.2 0.1-0.3 0.5-0.1 0.8 0.1 0.4-0.1 0.6-0.4 0.6-0.3 0-0.7-0.3-0.8-0.6-0.2-0.4 0-0.6 0.3-0.6 0.3 0 0.6-0.3 0.6-0.6 0-0.3 0.2-0.6 0.4-0.6 0.2 0 0.4 0.2 0.4 0.4zm40.7 1.3c-0.1 0.2-0.4 0.5-0.6 0.6-0.3 0.1-0.4-0.1-0.3-0.5 0.3-0.7 1.1-0.8 0.9-0.1zm-140.7 2.6c0 0.7-0.2 1.4-0.4 1.5-0.3 0.2-0.4-0.6-0.4-2.1 0.1-2.4 0.7-2 0.8 0.6zm141.6 0.1c0 0.2-0.3 0.4-0.6 0.4-0.3 0-0.6-0.2-0.6-0.4 0-0.2 0.3-0.4 0.6-0.4 0.3 0 0.6 0.2 0.6 0.4zm-46.4 14.6c0.4 0.5 0.3 0.5-0.8 0.2q-2.1-0.8-0.4-0.8c0.4 0 0.9 0.3 1.2 0.6zm6.4-0.2c0 0.2-0.3 0.4-0.6 0.4-0.3 0-0.6-0.2-0.6-0.4 0-0.2 0.3-0.4 0.6-0.4 0.3 0 0.6 0.2 0.6 0.4zm20.1 1.6c0.1 0.5 0 0.7-0.3 0.5-0.4-0.1-0.6-0.4-0.6-0.7 0-0.9 0.7-0.7 0.9 0.2zm33.9 2.4c0 0.4-1 0.8-1.4 0.5-0.4-0.5-0.2-0.9 0.6-0.9 0.4 0 0.8 0.2 0.8 0.4zm2.3 5.5c-0.4 0.4-0.8 0.5-1 0.4-0.1-0.2 0.1-0.6 0.5-0.9 0.5-0.3 0.9-0.5 1-0.4 0.1 0.1-0.1 0.5-0.5 0.9zm2.1 0.3c0 0.3-0.2 0.6-0.4 0.6-0.2 0-0.4-0.3-0.4-0.6 0-0.3 0.2-0.6 0.4-0.6 0.2 0 0.4 0.3 0.4 0.6zm-34.4 14.4l0.9 1h-0.8q-0.9 0-0.9-0.8c0-0.4-0.2-0.8-0.5-0.9-0.3-0.1-0.3-0.3-0.1-0.3 0.3 0 0.9 0.4 1.4 1zm23.4 0.6c0.3 0.5-0.9 1.3-1.6 1-0.6-0.2-0.6-0.3-0.2-0.8 0.6-0.7 1.4-0.8 1.8-0.2zm-13 1.6c0 0.5-1.1 0.5-1.4 0-0.4-0.7 0.2-1.3 0.8-0.8 0.3 0.3 0.6 0.7 0.6 0.8zm-63.8 15.4c0.3 0.3 0.6 0.7 0.6 0.9 0 0.1-0.2 0-0.5-0.2-0.7-0.7-1.9-0.6-1.9 0.2 0 0.8-0.8-0.1-0.8-1 0-0.7 1.9-0.6 2.6 0.1zm161.5 4c-0.2 0.7-0.7 0.8-1.1 0.3-0.2-0.5 0.2-0.9 0.9-0.9 0.3 0 0.4 0.3 0.2 0.6zm-20.1 0.8c0 0.3-0.1 0.6-0.2 0.6-0.1 0-0.4 0.1-0.8 0.3-0.6 0.2-0.6 0.1-0.1-0.6 0.6-1 1.1-1.2 1.1-0.3zm-10.9 12.5c-0.4 0.3-0.8 0.5-1 0.4-0.1-0.2 0-0.5 0.3-0.7 1-0.6 1.4-0.4 0.7 0.3zm-158.7 21c-0.5 0.5-1 0.1-0.6-0.5 0.1-0.2 0.4-0.3 0.7-0.2q0.4 0.3-0.1 0.7zm173-0.1c-0.1 0.2-0.5 0.4-0.8 0.4-0.4 0-0.5-0.2-0.4-0.4 0.1-0.2 0.5-0.4 0.8-0.4 0.4 0 0.5 0.2 0.4 0.4zm-173.6 2.4c0.1 0.2-0.1 0.4-0.6 0.4-0.5 0-0.7-0.2-0.6-0.4 0.1-0.2 0.4-0.4 0.6-0.4 0.2 0 0.5 0.2 0.6 0.4z"/>
	</g>
</svg>